HIERARCHY
ROOT Hips
{
	OFFSET -0.001795 -0.223333 0.028219
	CHANNELS 6 Xposition Yposition Zposition Zrotation Yrotation Xrotation 
	JOINT LeftUpLeg
	{
		OFFSET 0.069520 -0.091406 -0.006815
		CHANNELS 3 Zrotation Yrotation Xrotation
		JOINT LeftLeg
		{
			OFFSET 0.034277 -0.375199 -0.004496
			CHANNELS 3 Zrotation Yrotation Xrotation
			JOINT LeftFoot
			{
				OFFSET -0.013596 -0.397961 -0.043693
				CHANNELS 3 Zrotation Yrotation Xrotation
				JOINT LeftToe
				{
					OFFSET 0.026358 -0.055791 0.119288
					CHANNELS 3 Zrotation Yrotation Xrotation
					End Site
					{
						OFFSET 0.000000 0.000000 0.000000
					}
				}
			}
		}
	}
	JOINT RightUpLeg
	{
		OFFSET -0.067670 -0.090522 -0.004320
		CHANNELS 3 Zrotation Yrotation Xrotation
		JOINT RightLeg
		{
			OFFSET -0.038290 -0.382569 -0.008850
			CHANNELS 3 Zrotation Yrotation Xrotation
			JOINT RightFoot
			{
				OFFSET 0.015774 -0.398415 -0.042312
				CHANNELS 3 Zrotation Yrotation Xrotation
				JOINT RightToe
				{
					OFFSET -0.025372 -0.048144 0.123348
					CHANNELS 3 Zrotation Yrotation Xrotation
					End Site
					{
						OFFSET 0.000000 0.000000 0.000000
					}
				}
			}
		}
	}
	JOINT Spine
	{
		OFFSET -0.002533 0.108963 -0.026696
		CHANNELS 3 Zrotation Yrotation Xrotation
		JOINT Spine1
		{
			OFFSET 0.005487 0.135180 0.001092
			CHANNELS 3 Zrotation Yrotation Xrotation
			JOINT Spine2
			{
				OFFSET 0.001457 0.052922 0.025425
				CHANNELS 3 Zrotation Yrotation Xrotation
				JOINT Neck
				{
					OFFSET -0.002778 0.213870 -0.042857
					CHANNELS 3 Zrotation Yrotation Xrotation
					JOINT Head
					{
						OFFSET 0.005152 0.064970 0.051349
						CHANNELS 3 Zrotation Yrotation Xrotation
						End Site
						{
							OFFSET 0.000000 0.000000 0.000000
						}
					}
				}
				JOINT LeftShoulder
				{
					OFFSET 0.078845 0.121749 -0.034090
					CHANNELS 3 Zrotation Yrotation Xrotation
					JOINT LeftArm
					{
						OFFSET 0.090977 0.030469 -0.008868
						CHANNELS 3 Zrotation Yrotation Xrotation
						JOINT LeftForeArm
						{
							OFFSET 0.259612 -0.012772 -0.027456
							CHANNELS 3 Zrotation Yrotation Xrotation
							JOINT LeftHand
							{
								OFFSET 0.249234 0.008986 -0.001171
								CHANNELS 3 Zrotation Yrotation Xrotation
								End Site
								{
									OFFSET 0.000000 0.000000 0.000000
								}
							}
						}
					}
				}
				JOINT RightShoulder
				{
					OFFSET -0.081759 0.118833 -0.038615
					CHANNELS 3 Zrotation Yrotation Xrotation
					JOINT RightArm
					{
						OFFSET -0.096012 0.032551 -0.009143
						CHANNELS 3 Zrotation Yrotation Xrotation
						JOINT RightForeArm
						{
							OFFSET -0.253742 -0.013329 -0.021401
							CHANNELS 3 Zrotation Yrotation Xrotation
							JOINT RightHand
							{
								OFFSET -0.255298 0.007772 -0.005559
								CHANNELS 3 Zrotation Yrotation Xrotation
								End Site
								{
									OFFSET 0.000000 0.000000 0.000000
								}
							}
						}
					}
				}
			}
		}
	}
}
MOTION
Frames: 6
Frame Time: 0.050000
0.000000 0.934515 0.000000 -1.098543 -10.104051 -0.749591 0.767808 0.268609 2.754600 -1.314975 0.130220 3.027203 0.781648 1.224957 -1.595302 0.000000 0.000000 0.000000 3.026277 -0.290283 1.585728 -0.491947 0.330321 5.500964 2.535646 6.272807 0.195660 0.000000 0.000000 0.000000 5.093096 0.043880 -0.621648 -2.119478 0.945521 -2.727605 -0.450624 2.915852 8.412217 4.531780 -2.250167 -13.275351 0.000000 0.000000 0.000000 -22.804988 -3.324550 0.633501 -53.442403 -5.174601 -4.681731 -7.140068 -18.732129 1.979128 0.000000 0.000000 0.000000 19.770022 -0.859516 -2.904871 57.442231 1.283638 -5.300033 6.480685 22.309175 1.820184 0.000000 0.000000 0.000000 
-0.000372 0.936179 0.000173 -1.058472 -11.029261 -0.342605 0.625171 0.315082 3.173565 -1.409752 0.156596 2.436301 0.894398 1.578631 -1.354326 0.000000 0.000000 0.000000 3.105511 -0.296673 1.559557 -0.320271 0.254839 4.531933 2.723268 6.258049 0.750973 0.000000 0.000000 0.000000 5.162407 0.104425 -1.338290 -2.333982 1.058658 -1.935543 -0.200965 3.462601 7.774412 5.167050 -2.747969 -12.382450 0.000000 0.000000 0.000000 -22.631798 -3.684198 0.813286 -53.154625 -4.162524 -5.033196 -7.665852 -19.826067 2.189298 0.000000 0.000000 0.000000 19.302253 -0.898532 -2.864834 58.111891 0.912433 -5.492978 5.812872 22.790211 1.736404 0.000000 0.000000 0.000000 
-0.001018 0.937402 0.000334 -1.177275 -10.410156 0.152596 0.599504 0.261068 2.669653 -1.173158 0.111510 2.838104 1.206959 2.275344 -1.318582 0.000000 0.000000 0.000000 3.142854 -0.251036 1.119710 -0.353314 0.247709 4.346697 2.659581 5.588498 1.383929 0.000000 0.000000 0.000000 5.131825 0.128185 -1.702921 -2.094406 0.918210 -3.238301 -0.388989 4.128665 8.460384 5.648250 -2.962281 -12.670094 0.000000 0.000000 0.000000 -22.037789 -3.550648 0.500699 -53.554214 -4.541729 -4.891172 -8.082398 -19.849729 2.244776 0.000000 0.000000 0.000000 18.859466 -1.410579 -2.815390 58.801385 0.060151 -6.081417 6.789881 23.106342 2.003322 0.000000 0.000000 0.000000 
-0.002167 0.936633 0.000594 -0.799129 -10.615535 0.284704 0.335298 0.265908 2.670726 -1.252706 0.125631 2.799732 1.205491 1.998546 -2.298253 0.000000 0.000000 0.000000 3.205085 -0.275047 1.285721 -0.762675 0.315211 4.623620 2.554394 6.007198 0.553863 0.000000 0.000000 0.000000 5.056147 0.141930 -1.890114 -2.235584 0.988465 -2.907845 -0.487681 4.621580 8.392545 5.764399 -3.148797 -11.534963 0.000000 0.000000 0.000000 -21.548556 -3.338703 0.275585 -54.173624 -4.411582 -4.958198 -7.967004 -20.848693 2.334040 0.000000 0.000000 0.000000 19.085132 -2.185117 -3.161018 58.714513 0.131915 -6.031773 7.508434 23.247560 2.172061 0.000000 0.000000 0.000000 
-0.003899 0.936768 0.000621 -0.730001 -10.045514 0.138793 0.623310 0.259196 2.666662 -1.458877 0.152560 3.037147 1.187300 1.795627 -2.749741 0.000000 0.000000 0.000000 3.206476 -0.285433 1.399441 -0.459714 0.325853 5.503823 2.249193 5.496253 0.245250 0.000000 0.000000 0.000000 5.009207 0.154255 -2.021983 -2.225162 0.985517 -3.040444 -0.559982 4.663025 8.959307 5.323568 -2.816210 -11.672928 0.000000 0.000000 0.000000 -21.713018 -3.449774 0.251291 -53.632742 -4.415332 -4.948102 -7.906083 -22.028114 2.456585 0.000000 0.000000 0.000000 19.439795 -2.076790 -3.045629 58.490396 0.164769 -6.057750 7.443477 23.676720 2.232574 0.000000 0.000000 0.000000 
-0.006178 0.936194 0.000710 -0.372727 -8.537092 0.447944 0.124313 0.146254 1.497132 -1.097617 0.075326 3.893901 0.960336 0.907722 -3.601937 0.000000 0.000000 0.000000 3.878443 -0.299580 1.274544 -1.173887 0.448494 5.943990 1.972815 5.599677 -0.732288 0.000000 0.000000 0.000000 4.543447 0.185733 -2.571269 -2.228734 1.011599 -2.521092 -0.183307 3.505168 8.824317 3.924655 -2.002478 -10.784366 0.000000 0.000000 0.000000 -21.324240 -3.411739 0.361219 -53.948119 -4.575364 -4.908410 -8.188659 -22.488277 2.585878 0.000000 0.000000 0.000000 19.147567 -1.581931 -2.843425 58.194246 0.681362 -5.743538 7.708114 23.146182 2.200928 0.000000 0.000000 0.000000 
